<svg xmlns="http://www.w3.org/2000/svg" width="356" height="356" viewBox="0 0 128 30" fill="none"><path d="M42.9425 17.4799L40.6594 19.7319V21.5277C40.6594 22.8385 39.5958 23.902 38.285 23.902C36.9742 23.902 35.9106 22.8385 35.9106 21.5277V8.46739C35.9106 7.15657 36.9742 6.09302 38.285 6.09302C39.5958 6.09302 40.6594 7.15657 40.6594 8.46739V14.0996L47.6553 7.43746C48.0322 7.07974 48.534 6.88047 49.0549 6.88047C50.8579 6.88047 51.7702 9.05318 50.5074 10.34L46.4453 14.4646L51.2805 20.6082C52.332 21.943 51.3813 23.902 49.6815 23.902H49.0934C48.4788 23.902 47.8954 23.6235 47.5088 23.1434L42.9449 17.4775L42.9425 17.4799Z" fill="#170738"></path><path d="M70.0237 17.0551H58.8624C59.0857 18.0707 59.6139 18.8725 60.4446 19.4607C61.2776 20.0489 62.3124 20.3442 63.5488 20.3442C64.4011 20.3442 65.1573 20.217 65.8175 19.9625C66.0432 19.876 66.2617 19.7728 66.4753 19.6528C67.2412 19.2206 68.2015 19.3479 68.7969 19.9961L68.8689 20.0753C69.6684 20.942 69.4811 22.332 68.4704 22.937C67.1139 23.7461 65.4334 24.1518 63.4263 24.1518C61.5801 24.1518 59.9452 23.7917 58.5239 23.0715C57.1027 22.3512 56.0079 21.3525 55.2373 20.0729C54.4666 18.7933 54.0801 17.3432 54.0801 15.7203C54.0801 14.0974 54.4618 12.6713 55.2229 11.3821C55.9839 10.0928 57.0282 9.08931 58.3583 8.36908C59.6883 7.64884 61.1744 7.28873 62.8189 7.28873C64.4635 7.28873 65.8727 7.63444 67.1716 8.32346C68.4704 9.01249 69.4907 10.004 70.2302 11.2908C70.972 12.5801 71.3417 14.0757 71.3417 15.7803C71.3417 15.7851 71.3417 15.7899 71.3417 15.7995C71.3153 16.5053 70.7271 17.0599 70.0213 17.0599L70.0237 17.0551ZM60.1421 11.7878C59.4122 12.3976 58.9657 13.2283 58.8024 14.2846H66.8691C66.7058 13.2499 66.2593 12.424 65.5294 11.8046C64.7996 11.1852 63.9065 10.8755 62.8501 10.8755C61.7938 10.8755 60.8719 11.1804 60.1397 11.7878H60.1421Z" fill="#170738"></path><path d="M89.2322 17.0551H78.0709C78.2942 18.0707 78.8224 18.8725 79.6531 19.4607C80.4861 20.0489 81.5209 20.3442 82.7573 20.3442C83.6095 20.3442 84.3658 20.217 85.026 19.9625C85.2517 19.876 85.4702 19.7728 85.6838 19.6528C86.4497 19.2206 87.41 19.3479 88.0054 19.9961L88.0774 20.0753C88.8769 20.942 88.6896 22.332 87.6789 22.937C86.3224 23.7461 84.6419 24.1518 82.6348 24.1518C80.7886 24.1518 79.1537 23.7917 77.7324 23.0715C76.3112 22.3512 75.2164 21.3525 74.4458 20.0729C73.6751 18.7933 73.2886 17.3432 73.2886 15.7203C73.2886 14.0974 73.6703 12.6713 74.4313 11.3821C75.1924 10.0928 76.2367 9.08931 77.5668 8.36908C78.8968 7.64884 80.3829 7.28873 82.0274 7.28873C83.672 7.28873 85.0812 7.63444 86.3801 8.32346C87.6789 9.01249 88.6992 10.004 89.4387 11.2908C90.1805 12.5801 90.5502 14.0757 90.5502 15.7803C90.5502 15.7851 90.5502 15.7899 90.5502 15.7995C90.5238 16.5053 89.9356 17.0599 89.2298 17.0599L89.2322 17.0551ZM79.3506 11.7878C78.6207 12.3976 78.1742 13.2283 78.0109 14.2846H86.0776C85.9143 13.2499 85.4678 12.424 84.7379 11.8046C84.0081 11.1852 83.115 10.8755 82.0586 10.8755C81.0023 10.8755 80.0804 11.1804 79.3482 11.7878H79.3506Z" fill="#170738"></path><path d="M107.554 8.33295C108.803 9.03398 109.782 10.0183 110.493 11.2859C111.204 12.5535 111.559 14.03 111.559 15.7154C111.559 17.4007 111.204 18.8772 110.493 20.1448C109.782 21.4124 108.803 22.3967 107.554 23.0978C106.306 23.7988 104.921 24.1469 103.399 24.1469C101.308 24.1469 99.6631 23.4867 98.4675 22.1687V27.436C98.4675 28.7468 97.404 29.8104 96.0931 29.8104C94.7823 29.8104 93.7188 28.7468 93.7188 27.436V10.1743C93.7188 8.71227 94.9047 7.52628 96.3668 7.52628C97.4088 7.52628 98.2538 8.37136 98.2538 9.4133C99.4302 7.99204 101.147 7.2814 103.399 7.2814C104.921 7.2814 106.306 7.63192 107.554 8.33055V8.33295ZM105.576 19.0188C106.356 18.1978 106.748 17.0958 106.748 15.7154C106.748 14.3349 106.356 13.2353 105.576 12.4119C104.794 11.5908 103.795 11.1779 102.578 11.1779C101.36 11.1779 100.359 11.5884 99.5791 12.4119C98.7964 13.2329 98.4075 14.3349 98.4075 15.7154C98.4075 17.0958 98.7988 18.1954 99.5791 19.0188C100.359 19.8399 101.36 20.2528 102.578 20.2528C103.795 20.2528 104.794 19.8423 105.576 19.0188Z" fill="#170738"></path><path d="M127.997 22.0774C127.997 23.0857 127.179 23.9044 126.17 23.9044H115.211C114.202 23.9044 113.384 23.0857 113.384 22.0774V21.7101C113.384 21.2779 113.537 20.8602 113.816 20.5313L121.727 11.1778H115.424C114.416 11.1778 113.597 10.3592 113.597 9.35083C113.597 8.3425 114.416 7.52383 115.424 7.52383H125.897C126.905 7.52383 127.724 8.3425 127.724 9.35083V9.71815C127.724 10.1503 127.57 10.568 127.292 10.8969L119.383 20.2504H126.173C127.181 20.2504 128 21.0691 128 22.0774H127.997Z" fill="#170738"></path><path d="M13.2884 29.9544C11.8959 29.9544 10.7676 28.826 10.7676 27.4336V23.8228C10.7676 22.4303 11.8959 21.302 13.2884 21.302C14.6809 21.302 15.8092 22.4303 15.8092 23.8228V27.4336C15.8092 28.826 14.6809 29.9544 13.2884 29.9544Z" fill="#170738"></path><path d="M13.2884 8.69553C11.8959 8.69553 10.7676 7.56716 10.7676 6.1747V2.56633C10.7676 1.17387 11.8959 0.0455017 13.2884 0.0455017C14.6809 0.0455017 15.8092 1.17387 15.8092 2.56633V6.1747C15.8092 7.56716 14.6809 8.69553 13.2884 8.69553Z" fill="#170738"></path><path d="M24.0537 23.7364C23.6264 23.7364 23.1919 23.6283 22.7957 23.3978L19.6723 21.5949C18.4671 20.8986 18.0542 19.3573 18.7504 18.1521C19.4466 16.9469 20.9879 16.534 22.1931 17.2302L25.3165 19.0332C26.5217 19.7294 26.9347 21.2707 26.2384 22.4759C25.7727 23.285 24.9252 23.7364 24.0537 23.7364Z" fill="#9DD838"></path><path d="M20.9351 13.1083C20.0636 13.1083 19.2162 12.657 18.7504 11.8479C18.0542 10.6427 18.4671 9.10139 19.6723 8.40517L22.7933 6.60218C23.9985 5.90595 25.5398 6.31888 26.236 7.52408C26.9323 8.72927 26.5193 10.2706 25.3141 10.9668L22.1931 12.7698C21.797 13.0003 21.3625 13.1083 20.9351 13.1083Z" fill="#9DD838"></path><path d="M2.52301 23.7366C1.65152 23.7366 0.804044 23.2852 0.338292 22.4762C-0.357936 21.271 0.0549992 19.7297 1.26019 19.0334L8.24648 15.0001L1.26019 10.9668C0.0549992 10.2706 -0.357936 8.72927 0.338292 7.52408C1.03452 6.31888 2.57582 5.90595 3.78102 6.60218L14.5485 12.8178C15.3288 13.2692 15.8089 14.0998 15.8089 15.0001C15.8089 15.9004 15.3288 16.7359 14.5485 17.1848L3.78102 23.4005C3.38489 23.6285 2.95035 23.739 2.52301 23.739V23.7366Z" fill="#6C63FF"></path></svg>
